v 0 0 -0.02466776
v 0 1 0.00473655
v 0 2 0.03061020
v 0 3 0.04633380
v 0 4 0.04583232
v 0 5 0.02752540
v 0 6 -0.00338747
v 0 7 -0.03614649
v 0 8 -0.05799893
v 0 9 -0.05900167
v 0 10 -0.03707090
v 0 11 -0.00002131
v 0 12 0.03731096
v 0 13 0.05855323
v 0 14 0.05235257
v 0 15 0.01752466
v 0 16 -0.03414421
v 0 17 -0.08333234
v 0 18 -0.11433765
v 0 19 -0.12319489
v 0 20 -0.11562538
v 0 21 -0.09919176
v 0 22 -0.07803740
v 0 23 -0.05302834
v 1 0 0.02097078
v 1 1 0.04122494
v 1 2 0.05628975
v 1 3 0.06010271
v 1 4 0.04733207
v 1 5 0.01814817
v 1 6 -0.01999100
v 1 7 -0.05404388
v 1 8 -0.06994526
v 1 9 -0.05939297
v 1 10 -0.02538494
v 1 11 0.01791669
v 1 12 0.05125120
v 1 13 0.05869071
v 1 14 0.03524176
v 1 15 -0.01032246
v 1 16 -0.05937211
v 1 17 -0.09332157
v 1 18 -0.10385450
v 1 19 -0.09438611
v 1 20 -0.07352245
v 1 21 -0.04883250
v 1 22 -0.02426038
v 1 23 -0.00105119
v 2 0 0.05590875
v 2 1 0.06838697
v 2 2 0.07405789
v 2 3 0.06678118
v 2 4 0.04241662
v 2 5 0.00337080
v 2 6 -0.04014366
v 2 7 -0.07256192
v 2 8 -0.07949612
v 2 9 -0.05585576
v 2 10 -0.01035018
v 2 11 0.03715940
v 2 12 0.06437404
v 2 13 0.05791446
v 2 14 0.02065007
v 2 15 -0.02996414
v 2 16 -0.07208744
v 2 17 -0.09123495
v 2 18 -0.08575936
v 2 19 -0.06316031
v 2 20 -0.03312244
v 2 21 -0.00359217
v 2 22 0.02093331
v 2 23 0.04014870
v 3 0 0.07251057
v 3 1 0.08000774
v 3 2 0.07966126
v 3 3 0.06495037
v 3 4 0.03269225
v 3 5 -0.01270290
v 3 6 -0.05844623
v 3 7 -0.08729044
v 3 8 -0.08579288
v 3 9 -0.05227892
v 3 10 -0.00009812
v 3 11 0.04688631
v 3 12 0.06554663
v 3 13 0.04657424
v 3 14 -0.00004418
v 3 15 -0.05134514
v 3 16 -0.08546019
v 3 17 -0.09217223
v 3 18 -0.07401613
v 3 19 -0.04091274
v 3 20 -0.00465494
v 3 21 0.02570440
v 3 22 0.04710532
v 3 23 0.06158050
v 4 0 0.06897354
v 4 1 0.07436032
v 4 2 0.07222523
v 4 3 0.05532087
v 4 4 0.02068159
v 4 5 -0.02605548
v 4 6 -0.07064810
v 4 7 -0.09567617
v 4 8 -0.08898813
v 4 9 -0.05133979
v 4 10 0.00092993
v 4 11 0.04218570
v 4 12 0.05075372
v 4 13 0.02180363
v 4 14 -0.02960961
v 4 15 -0.07843821
v 4 16 -0.10428894
v 4 17 -0.09977269
v 4 18 -0.07043594
v 4 19 -0.02946131
v 4 20 0.00900368
v 4 21 0.03637671
v 4 22 0.05230112
v 4 23 0.06160708
v 5 0 0.05112360
v 5 1 0.05652842
v 5 2 0.05595599
v 5 3 0.04134451
v 5 4 0.00947989
v 5 5 -0.03397717
v 5 6 -0.07495355
v 5 7 -0.09678949
v 5 8 -0.08833307
v 5 9 -0.05175686
v 5 10 -0.00466600
v 5 11 0.02778374
v 5 12 0.02682930
v 5 13 -0.00840131
v 5 14 -0.06037444
v 5 15 -0.10400929
v 5 16 -0.12046164
v 5 17 -0.10494871
v 5 18 -0.06669359
v 5 19 -0.02228591
v 5 20 0.01349069
v 5 21 0.03417136
v 5 22 0.04260598
v 5 23 0.04634265
v 6 0 0.03046183
v 6 1 0.03654035
v 6 2 0.03874312
v 6 3 0.02860541
v 6 4 0.00254204
v 6 5 -0.03461095
v 6 6 -0.07017275
v 6 7 -0.08876593
v 6 8 -0.08026918
v 6 9 -0.04767102
v 6 10 -0.00809889
v 6 11 0.01550911
v 6 12 0.00786458
v 6 13 -0.02910640
v 6 14 -0.07721236
v 6 15 -0.11252140
v 6 16 -0.11856490
v 6 17 -0.09420452
v 6 18 -0.05227997
v 6 19 -0.01072337
v 6 20 0.01731488
v 6 21 0.02871590
v 6 22 0.02918022
v 6 23 0.02773359
v 7 0 0.01695678
v 7 1 0.02300789
v 7 2 0.02722220
v 7 3 0.02167309
v 7 4 0.00280569
v 7 5 -0.02570375
v 7 6 -0.05341255
v 7 7 -0.06722248
v 7 8 -0.05876269
v 7 9 -0.03125146
v 7 10 0.00038937
v 7 11 0.01686861
v 7 12 0.00647649
v 7 13 -0.02724126
v 7 14 -0.06692855
v 7 15 -0.09162102
v 7 16 -0.08909535
v 7 17 -0.06206623
v 7 18 -0.02465326
v 7 19 0.00736927
v 7 20 0.02465284
v 7 21 0.02701278
v 7 22 0.02118783
v 7 23 0.01598807
v 8 0 0.01291920
v 8 1 0.01783169
v 8 2 0.02273331
v 8 3 0.02157259
v 8 4 0.01142642
v 8 5 -0.00532339
v 8 6 -0.02145238
v 8 7 -0.02806058
v 8 8 -0.01954855
v 8 9 0.00163896
v 8 10 0.02435390
v 8 11 0.03458132
v 8 12 0.02444005
v 8 13 -0.00203820
v 8 14 -0.03049021
v 8 15 -0.04543017
v 8 16 -0.03997358
v 8 17 -0.01892692
v 8 18 0.00624519
v 8 19 0.02500501
v 8 20 0.03211943
v 8 21 0.02852107
v 8 22 0.01990842
v 8 23 0.01329639
v 9 0 0.01349764
v 9 1 0.01660598
v 9 2 0.02143044
v 9 3 0.02508293
v 9 4 0.02598507
v 9 5 0.02480823
v 9 6 0.02396214
v 9 7 0.02625041
v 9 8 0.03372161
v 9 9 0.04540436
v 9 10 0.05580232
v 9 11 0.05797063
v 9 12 0.04844818
v 9 13 0.03066210
v 9 14 0.01331791
v 9 15 0.00438987
v 9 16 0.00618987
v 9 17 0.01518778
v 9 18 0.02545519
v 9 19 0.03199306
v 9 20 0.03237734
v 9 21 0.02726244
v 9 22 0.01996190
v 9 23 0.01453969
v 10 0 0.01203784
v 10 1 0.01291141
v 10 2 0.01705301
v 10 3 0.02567419
v 10 4 0.03909907
v 10 5 0.05568952
v 10 6 0.07159846
v 10 7 0.08238896
v 10 8 0.08605634
v 10 9 0.08361656
v 10 10 0.07694105
v 10 11 0.06786606
v 10 12 0.05779022
v 10 13 0.04795185
v 10 14 0.03960954
v 10 15 0.03340160
v 10 16 0.02926746
v 10 17 0.02665440
v 10 18 0.02484509
v 10 19 0.02313757
v 10 20 0.02097873
v 10 21 0.01829314
v 10 22 0.01550987
v 10 23 0.01320667
v 11 0 0.00524866
v 11 1 0.00298130
v 11 2 0.00488085
v 11 3 0.01643572
v 11 4 0.04022002
v 11 5 0.07234562
v 11 6 0.10244898
v 11 7 0.11893792
v 11 8 0.11591202
v 11 9 0.09675773
v 11 10 0.07143017
v 11 11 0.05090574
v 11 12 0.04032342
v 11 13 0.03745308
v 11 14 0.03648493
v 11 15 0.03281076
v 11 16 0.02537226
v 11 17 0.01596958
v 11 18 0.00738724
v 11 19 0.00191306
v 11 20 0.00051067
v 11 21 0.00248381
v 11 22 0.00549900
v 11 23 0.00677860
v 12 0 -0.00408739
v 12 1 -0.01066667
v 12 2 -0.01369035
v 12 3 -0.00420455
v 12 4 0.02275375
v 12 5 0.06233844
v 12 6 0.09970457
v 12 7 0.11802096
v 12 8 0.10847394
v 12 9 0.07640299
v 12 10 0.03874882
v 12 11 0.01263390
v 12 12 0.00392792
v 12 13 0.00704155
v 12 14 0.01200932
v 12 15 0.01177484
v 12 16 0.00490637
v 12 17 -0.00576262
v 12 18 -0.01581973
v 12 19 -0.02127748
v 12 20 -0.02009607
v 12 21 -0.01338349
v 12 22 -0.00542274
v 12 23 -0.00146014
v 13 0 -0.00765549
v 13 1 -0.01875739
v 13 2 -0.02925236
v 13 3 -0.02842794
v 13 4 -0.00890887
v 13 5 0.02608734
v 13 6 0.06165874
v 13 7 0.07921280
v 13 8 0.06830751
v 13 9 0.03490584
v 13 10 -0.00200505
v 13 11 -0.02561154
v 13 12 -0.03107384
v 13 13 -0.02461402
v 13 14 -0.01632800
v 13 15 -0.01315101
v 13 16 -0.01657214
v 13 17 -0.02403208
v 13 18 -0.03121247
v 13 19 -0.03401531
v 13 20 -0.03008308
v 13 21 -0.02035951
v 13 22 -0.00949161
v 13 23 -0.00391944
v 14 0 0.00312370
v 14 1 -0.01099446
v 14 2 -0.02978011
v 14 3 -0.04266659
v 14 4 -0.03997626
v 14 5 -0.02034101
v 14 6 0.00587243
v 14 7 0.02190661
v 14 8 0.01730318
v 14 9 -0.00426034
v 14 10 -0.02954482
v 14 11 -0.04592720
v 14 12 -0.04879041
v 14 13 -0.04215654
v 14 14 -0.03337456
v 14 15 -0.02753982
v 14 16 -0.02592024
v 14 17 -0.02712896
v 14 18 -0.02858908
v 14 19 -0.02769559
v 14 20 -0.02225186
v 14 21 -0.01196618
v 14 22 -0.00020772
v 14 23 0.00661290
v 15 0 0.02846424
v 15 1 0.01405957
v 15 2 -0.01099039
v 15 3 -0.03792823
v 15 4 -0.05520617
v 15 5 -0.05594735
v 15 6 -0.04321562
v 15 7 -0.02844466
v 15 8 -0.02198261
v 15 9 -0.02632574
v 15 10 -0.03659701
v 15 11 -0.04453817
v 15 12 -0.04544414
v 15 13 -0.04016737
v 15 14 -0.03215465
v 15 15 -0.02391599
v 15 16 -0.01637200
v 15 17 -0.00994370
v 15 18 -0.00501154
v 15 19 -0.00125211
v 15 20 0.00349289
v 15 21 0.01160476
v 15 22 0.02218404
v 15 23 0.02996755
v 16 0 0.05506867
v 16 1 0.04338979
v 16 2 0.01712803
v 16 3 -0.01810713
v 16 4 -0.05060858
v 16 5 -0.06882122
v 16 6 -0.06870061
v 16 7 -0.05588280
v 16 8 -0.04066064
v 16 9 -0.03117999
v 16 10 -0.02855773
v 16 11 -0.02842664
v 16 12 -0.02672510
v 16 13 -0.02184980
v 16 14 -0.01346130
v 16 15 -0.00173290
v 16 16 0.01210882
v 16 17 0.02540875
v 16 18 0.03468434
v 16 19 0.03826181
v 16 20 0.03867254
v 16 21 0.04078577
v 16 22 0.04695761
v 16 23 0.05403533
v 17 0 0.06174973
v 17 1 0.05621593
v 17 2 0.03612237
v 17 3 0.00289805
v 17 4 -0.03369426
v 17 5 -0.06039157
v 17 6 -0.06881865
v 17 7 -0.06005738
v 17 8 -0.04280172
v 17 9 -0.02652869
v 17 10 -0.01531777
v 17 11 -0.00799898
v 17 12 -0.00189699
v 17 13 0.00585578
v 17 14 0.01786476
v 17 15 0.03472595
v 17 16 0.05398905
v 17 17 0.07069471
v 17 18 0.07913787
v 17 19 0.07673954
v 17 20 0.06716818
v 17 21 0.05805571
v 17 22 0.05530720
v 17 23 0.05859346
v 18 0 0.03490706
v 18 1 0.03966944
v 18 2 0.03345147
v 18 3 0.01299115
v 18 4 -0.01561526
v 18 5 -0.04081913
v 18 6 -0.05307923
v 18 7 -0.05005181
v 18 8 -0.03675510
v 18 9 -0.02029097
v 18 10 -0.00491841
v 18 11 0.00848885
v 18 12 0.02124474
v 18 13 0.03591728
v 18 14 0.05488938
v 18 15 0.07745056
v 18 16 0.09893724
v 18 17 0.11255664
v 18 18 0.11208961
v 18 19 0.09590620
v 18 20 0.07023525
v 18 21 0.04551050
v 18 22 0.03072854
v 18 23 0.02869699
v 19 0 -0.01809961
v 19 1 0.00026107
v 19 2 0.01221354
v 19 3 0.01070483
v 19 4 -0.00260551
v 19 5 -0.01987844
v 19 6 -0.03229612
v 19 7 -0.03518144
v 19 8 -0.02925762
v 19 9 -0.01739271
v 19 10 -0.00176565
v 19 11 0.01657324
v 19 12 0.03773396
v 19 13 0.06216872
v 19 14 0.08934160
v 19 15 0.11532557
v 19 16 0.13293692
v 19 17 0.13476980
v 19 18 0.11669919
v 19 19 0.08071551
v 19 20 0.03666530
v 19 21 -0.00278727
v 19 22 -0.02679815
v 19 23 -0.03066518
v 20 0 -0.07182238
v 20 1 -0.04047871
v 20 2 -0.01203820
v 20 3 0.00437403
v 20 4 0.00641455
v 20 5 -0.00182814
v 20 6 -0.01329571
v 20 7 -0.02225183
v 20 8 -0.02533941
v 20 9 -0.02063578
v 20 10 -0.00715645
v 20 11 0.01512728
v 20 12 0.04494798
v 20 13 0.07910887
v 20 14 0.11226794
v 20 15 0.13635548
v 20 16 0.14210544
v 20 17 0.12398016
v 20 18 0.08378441
v 20 19 0.02934312
v 20 20 -0.02689099
v 20 21 -0.07158275
v 20 22 -0.09490022
v 20 23 -0.09348002
v 21 0 -0.10175164
v 21 1 -0.06226941
v 21 2 -0.02387911
v 21 3 0.00368969
v 21 4 0.01558523
v 21 5 0.01282073
v 21 6 0.00026158
v 21 7 -0.01548953
v 21 8 -0.02746673
v 21 9 -0.02980148
v 21 10 -0.01872419
v 21 11 0.00664741
v 21 12 0.04314798
v 21 13 0.08335874
v 21 14 0.11667836
v 21 15 0.13134445
v 21 16 0.11876622
v 21 17 0.07873211
v 21 18 0.02079237
v 21 19 -0.04156946
v 21 20 -0.09534335
v 21 21 -0.13030099
v 21 22 -0.14221300
v 21 23 -0.13122983
v 22 0 -0.09894673
v 22 1 -0.05778826
v 22 2 -0.01759407
v 22 3 0.01258006
v 22 4 0.02674751
v 22 5 0.02362779
v 22 6 0.00687991
v 22 7 -0.01573938
v 22 8 -0.03481232
v 22 9 -0.04182985
v 22 10 -0.03142971
v 22 11 -0.00333385
v 22 12 0.03623290
v 22 13 0.07601942
v 22 14 0.10175490
v 22 15 0.10078357
v 22 16 0.06899540
v 22 17 0.01395836
v 22 18 -0.04895486
v 22 19 -0.10313265
v 22 20 -0.13886593
v 22 21 -0.15426944
v 22 22 -0.15147038
v 22 23 -0.13213488
v 23 0 -0.06915720
v 23 1 -0.03199311
v 23 2 0.00322053
v 23 3 0.02870700
v 23 4 0.03808491
v 23 5 0.02919355
v 23 6 0.00588946
v 23 7 -0.02277409
v 23 8 -0.04559908
v 23 9 -0.05271073
v 23 10 -0.03915716
v 23 11 -0.00751065
v 23 12 0.03198532
v 23 13 0.06482254
v 23 14 0.07627214
v 23 15 0.05743497
v 23 16 0.01139673
v 23 17 -0.04679868
v 23 18 -0.09855682
v 23 19 -0.13119515
v 23 20 -0.14324464
v 23 21 -0.13983489
v 23 22 -0.12558395
v 23 23 -0.10165528
f 1 25 26
f 1 26 2
f 2 26 27
f 2 27 3
f 3 27 28
f 3 28 4
f 4 28 29
f 4 29 5
f 5 29 30
f 5 30 6
f 6 30 31
f 6 31 7
f 7 31 32
f 7 32 8
f 8 32 33
f 8 33 9
f 9 33 34
f 9 34 10
f 10 34 35
f 10 35 11
f 11 35 36
f 11 36 12
f 12 36 37
f 12 37 13
f 13 37 38
f 13 38 14
f 14 38 39
f 14 39 15
f 15 39 40
f 15 40 16
f 16 40 41
f 16 41 17
f 17 41 42
f 17 42 18
f 18 42 43
f 18 43 19
f 19 43 44
f 19 44 20
f 20 44 45
f 20 45 21
f 21 45 46
f 21 46 22
f 22 46 47
f 22 47 23
f 23 47 48
f 23 48 24
f 25 49 50
f 25 50 26
f 26 50 51
f 26 51 27
f 27 51 52
f 27 52 28
f 28 52 53
f 28 53 29
f 29 53 54
f 29 54 30
f 30 54 55
f 30 55 31
f 31 55 56
f 31 56 32
f 32 56 57
f 32 57 33
f 33 57 58
f 33 58 34
f 34 58 59
f 34 59 35
f 35 59 60
f 35 60 36
f 36 60 61
f 36 61 37
f 37 61 62
f 37 62 38
f 38 62 63
f 38 63 39
f 39 63 64
f 39 64 40
f 40 64 65
f 40 65 41
f 41 65 66
f 41 66 42
f 42 66 67
f 42 67 43
f 43 67 68
f 43 68 44
f 44 68 69
f 44 69 45
f 45 69 70
f 45 70 46
f 46 70 71
f 46 71 47
f 47 71 72
f 47 72 48
f 49 73 74
f 49 74 50
f 50 74 75
f 50 75 51
f 51 75 76
f 51 76 52
f 52 76 77
f 52 77 53
f 53 77 78
f 53 78 54
f 54 78 79
f 54 79 55
f 55 79 80
f 55 80 56
f 56 80 81
f 56 81 57
f 57 81 82
f 57 82 58
f 58 82 83
f 58 83 59
f 59 83 84
f 59 84 60
f 60 84 85
f 60 85 61
f 61 85 86
f 61 86 62
f 62 86 87
f 62 87 63
f 63 87 88
f 63 88 64
f 64 88 89
f 64 89 65
f 65 89 90
f 65 90 66
f 66 90 91
f 66 91 67
f 67 91 92
f 67 92 68
f 68 92 93
f 68 93 69
f 69 93 94
f 69 94 70
f 70 94 95
f 70 95 71
f 71 95 96
f 71 96 72
f 73 97 98
f 73 98 74
f 74 98 99
f 74 99 75
f 75 99 100
f 75 100 76
f 76 100 101
f 76 101 77
f 77 101 102
f 77 102 78
f 78 102 103
f 78 103 79
f 79 103 104
f 79 104 80
f 80 104 105
f 80 105 81
f 81 105 106
f 81 106 82
f 82 106 107
f 82 107 83
f 83 107 108
f 83 108 84
f 84 108 109
f 84 109 85
f 85 109 110
f 85 110 86
f 86 110 111
f 86 111 87
f 87 111 112
f 87 112 88
f 88 112 113
f 88 113 89
f 89 113 114
f 89 114 90
f 90 114 115
f 90 115 91
f 91 115 116
f 91 116 92
f 92 116 117
f 92 117 93
f 93 117 118
f 93 118 94
f 94 118 119
f 94 119 95
f 95 119 120
f 95 120 96
f 97 121 122
f 97 122 98
f 98 122 123
f 98 123 99
f 99 123 124
f 99 124 100
f 100 124 125
f 100 125 101
f 101 125 126
f 101 126 102
f 102 126 127
f 102 127 103
f 103 127 128
f 103 128 104
f 104 128 129
f 104 129 105
f 105 129 130
f 105 130 106
f 106 130 131
f 106 131 107
f 107 131 132
f 107 132 108
f 108 132 133
f 108 133 109
f 109 133 134
f 109 134 110
f 110 134 135
f 110 135 111
f 111 135 136
f 111 136 112
f 112 136 137
f 112 137 113
f 113 137 138
f 113 138 114
f 114 138 139
f 114 139 115
f 115 139 140
f 115 140 116
f 116 140 141
f 116 141 117
f 117 141 142
f 117 142 118
f 118 142 143
f 118 143 119
f 119 143 144
f 119 144 120
f 121 145 146
f 121 146 122
f 122 146 147
f 122 147 123
f 123 147 148
f 123 148 124
f 124 148 149
f 124 149 125
f 125 149 150
f 125 150 126
f 126 150 151
f 126 151 127
f 127 151 152
f 127 152 128
f 128 152 153
f 128 153 129
f 129 153 154
f 129 154 130
f 130 154 155
f 130 155 131
f 131 155 156
f 131 156 132
f 132 156 157
f 132 157 133
f 133 157 158
f 133 158 134
f 134 158 159
f 134 159 135
f 135 159 160
f 135 160 136
f 136 160 161
f 136 161 137
f 137 161 162
f 137 162 138
f 138 162 163
f 138 163 139
f 139 163 164
f 139 164 140
f 140 164 165
f 140 165 141
f 141 165 166
f 141 166 142
f 142 166 167
f 142 167 143
f 143 167 168
f 143 168 144
f 145 169 170
f 145 170 146
f 146 170 171
f 146 171 147
f 147 171 172
f 147 172 148
f 148 172 173
f 148 173 149
f 149 173 174
f 149 174 150
f 150 174 175
f 150 175 151
f 151 175 176
f 151 176 152
f 152 176 177
f 152 177 153
f 153 177 178
f 153 178 154
f 154 178 179
f 154 179 155
f 155 179 180
f 155 180 156
f 156 180 181
f 156 181 157
f 157 181 182
f 157 182 158
f 158 182 183
f 158 183 159
f 159 183 184
f 159 184 160
f 160 184 185
f 160 185 161
f 161 185 186
f 161 186 162
f 162 186 187
f 162 187 163
f 163 187 188
f 163 188 164
f 164 188 189
f 164 189 165
f 165 189 190
f 165 190 166
f 166 190 191
f 166 191 167
f 167 191 192
f 167 192 168
f 169 193 194
f 169 194 170
f 170 194 195
f 170 195 171
f 171 195 196
f 171 196 172
f 172 196 197
f 172 197 173
f 173 197 198
f 173 198 174
f 174 198 199
f 174 199 175
f 175 199 200
f 175 200 176
f 176 200 201
f 176 201 177
f 177 201 202
f 177 202 178
f 178 202 203
f 178 203 179
f 179 203 204
f 179 204 180
f 180 204 205
f 180 205 181
f 181 205 206
f 181 206 182
f 182 206 207
f 182 207 183
f 183 207 208
f 183 208 184
f 184 208 209
f 184 209 185
f 185 209 210
f 185 210 186
f 186 210 211
f 186 211 187
f 187 211 212
f 187 212 188
f 188 212 213
f 188 213 189
f 189 213 214
f 189 214 190
f 190 214 215
f 190 215 191
f 191 215 216
f 191 216 192
f 193 217 218
f 193 218 194
f 194 218 219
f 194 219 195
f 195 219 220
f 195 220 196
f 196 220 221
f 196 221 197
f 197 221 222
f 197 222 198
f 198 222 223
f 198 223 199
f 199 223 224
f 199 224 200
f 200 224 225
f 200 225 201
f 201 225 226
f 201 226 202
f 202 226 227
f 202 227 203
f 203 227 228
f 203 228 204
f 204 228 229
f 204 229 205
f 205 229 230
f 205 230 206
f 206 230 231
f 206 231 207
f 207 231 232
f 207 232 208
f 208 232 233
f 208 233 209
f 209 233 234
f 209 234 210
f 210 234 235
f 210 235 211
f 211 235 236
f 211 236 212
f 212 236 237
f 212 237 213
f 213 237 238
f 213 238 214
f 214 238 239
f 214 239 215
f 215 239 240
f 215 240 216
f 217 241 242
f 217 242 218
f 218 242 243
f 218 243 219
f 219 243 244
f 219 244 220
f 220 244 245
f 220 245 221
f 221 245 246
f 221 246 222
f 222 246 247
f 222 247 223
f 223 247 248
f 223 248 224
f 224 248 249
f 224 249 225
f 225 249 250
f 225 250 226
f 226 250 251
f 226 251 227
f 227 251 252
f 227 252 228
f 228 252 253
f 228 253 229
f 229 253 254
f 229 254 230
f 230 254 255
f 230 255 231
f 231 255 256
f 231 256 232
f 232 256 257
f 232 257 233
f 233 257 258
f 233 258 234
f 234 258 259
f 234 259 235
f 235 259 260
f 235 260 236
f 236 260 261
f 236 261 237
f 237 261 262
f 237 262 238
f 238 262 263
f 238 263 239
f 239 263 264
f 239 264 240
f 241 265 266
f 241 266 242
f 242 266 267
f 242 267 243
f 243 267 268
f 243 268 244
f 244 268 269
f 244 269 245
f 245 269 270
f 245 270 246
f 246 270 271
f 246 271 247
f 247 271 272
f 247 272 248
f 248 272 273
f 248 273 249
f 249 273 274
f 249 274 250
f 250 274 275
f 250 275 251
f 251 275 276
f 251 276 252
f 252 276 277
f 252 277 253
f 253 277 278
f 253 278 254
f 254 278 279
f 254 279 255
f 255 279 280
f 255 280 256
f 256 280 281
f 256 281 257
f 257 281 282
f 257 282 258
f 258 282 283
f 258 283 259
f 259 283 284
f 259 284 260
f 260 284 285
f 260 285 261
f 261 285 286
f 261 286 262
f 262 286 287
f 262 287 263
f 263 287 288
f 263 288 264
f 265 289 290
f 265 290 266
f 266 290 291
f 266 291 267
f 267 291 292
f 267 292 268
f 268 292 293
f 268 293 269
f 269 293 294
f 269 294 270
f 270 294 295
f 270 295 271
f 271 295 296
f 271 296 272
f 272 296 297
f 272 297 273
f 273 297 298
f 273 298 274
f 274 298 299
f 274 299 275
f 275 299 300
f 275 300 276
f 276 300 301
f 276 301 277
f 277 301 302
f 277 302 278
f 278 302 303
f 278 303 279
f 279 303 304
f 279 304 280
f 280 304 305
f 280 305 281
f 281 305 306
f 281 306 282
f 282 306 307
f 282 307 283
f 283 307 308
f 283 308 284
f 284 308 309
f 284 309 285
f 285 309 310
f 285 310 286
f 286 310 311
f 286 311 287
f 287 311 312
f 287 312 288
f 289 313 314
f 289 314 290
f 290 314 315
f 290 315 291
f 291 315 316
f 291 316 292
f 292 316 317
f 292 317 293
f 293 317 318
f 293 318 294
f 294 318 319
f 294 319 295
f 295 319 320
f 295 320 296
f 296 320 321
f 296 321 297
f 297 321 322
f 297 322 298
f 298 322 323
f 298 323 299
f 299 323 324
f 299 324 300
f 300 324 325
f 300 325 301
f 301 325 326
f 301 326 302
f 302 326 327
f 302 327 303
f 303 327 328
f 303 328 304
f 304 328 329
f 304 329 305
f 305 329 330
f 305 330 306
f 306 330 331
f 306 331 307
f 307 331 332
f 307 332 308
f 308 332 333
f 308 333 309
f 309 333 334
f 309 334 310
f 310 334 335
f 310 335 311
f 311 335 336
f 311 336 312
f 313 337 338
f 313 338 314
f 314 338 339
f 314 339 315
f 315 339 340
f 315 340 316
f 316 340 341
f 316 341 317
f 317 341 342
f 317 342 318
f 318 342 343
f 318 343 319
f 319 343 344
f 319 344 320
f 320 344 345
f 320 345 321
f 321 345 346
f 321 346 322
f 322 346 347
f 322 347 323
f 323 347 348
f 323 348 324
f 324 348 349
f 324 349 325
f 325 349 350
f 325 350 326
f 326 350 351
f 326 351 327
f 327 351 352
f 327 352 328
f 328 352 353
f 328 353 329
f 329 353 354
f 329 354 330
f 330 354 355
f 330 355 331
f 331 355 356
f 331 356 332
f 332 356 357
f 332 357 333
f 333 357 358
f 333 358 334
f 334 358 359
f 334 359 335
f 335 359 360
f 335 360 336
f 337 361 362
f 337 362 338
f 338 362 363
f 338 363 339
f 339 363 364
f 339 364 340
f 340 364 365
f 340 365 341
f 341 365 366
f 341 366 342
f 342 366 367
f 342 367 343
f 343 367 368
f 343 368 344
f 344 368 369
f 344 369 345
f 345 369 370
f 345 370 346
f 346 370 371
f 346 371 347
f 347 371 372
f 347 372 348
f 348 372 373
f 348 373 349
f 349 373 374
f 349 374 350
f 350 374 375
f 350 375 351
f 351 375 376
f 351 376 352
f 352 376 377
f 352 377 353
f 353 377 378
f 353 378 354
f 354 378 379
f 354 379 355
f 355 379 380
f 355 380 356
f 356 380 381
f 356 381 357
f 357 381 382
f 357 382 358
f 358 382 383
f 358 383 359
f 359 383 384
f 359 384 360
f 361 385 386
f 361 386 362
f 362 386 387
f 362 387 363
f 363 387 388
f 363 388 364
f 364 388 389
f 364 389 365
f 365 389 390
f 365 390 366
f 366 390 391
f 366 391 367
f 367 391 392
f 367 392 368
f 368 392 393
f 368 393 369
f 369 393 394
f 369 394 370
f 370 394 395
f 370 395 371
f 371 395 396
f 371 396 372
f 372 396 397
f 372 397 373
f 373 397 398
f 373 398 374
f 374 398 399
f 374 399 375
f 375 399 400
f 375 400 376
f 376 400 401
f 376 401 377
f 377 401 402
f 377 402 378
f 378 402 403
f 378 403 379
f 379 403 404
f 379 404 380
f 380 404 405
f 380 405 381
f 381 405 406
f 381 406 382
f 382 406 407
f 382 407 383
f 383 407 408
f 383 408 384
f 385 409 410
f 385 410 386
f 386 410 411
f 386 411 387
f 387 411 412
f 387 412 388
f 388 412 413
f 388 413 389
f 389 413 414
f 389 414 390
f 390 414 415
f 390 415 391
f 391 415 416
f 391 416 392
f 392 416 417
f 392 417 393
f 393 417 418
f 393 418 394
f 394 418 419
f 394 419 395
f 395 419 420
f 395 420 396
f 396 420 421
f 396 421 397
f 397 421 422
f 397 422 398
f 398 422 423
f 398 423 399
f 399 423 424
f 399 424 400
f 400 424 425
f 400 425 401
f 401 425 426
f 401 426 402
f 402 426 427
f 402 427 403
f 403 427 428
f 403 428 404
f 404 428 429
f 404 429 405
f 405 429 430
f 405 430 406
f 406 430 431
f 406 431 407
f 407 431 432
f 407 432 408
f 409 433 434
f 409 434 410
f 410 434 435
f 410 435 411
f 411 435 436
f 411 436 412
f 412 436 437
f 412 437 413
f 413 437 438
f 413 438 414
f 414 438 439
f 414 439 415
f 415 439 440
f 415 440 416
f 416 440 441
f 416 441 417
f 417 441 442
f 417 442 418
f 418 442 443
f 418 443 419
f 419 443 444
f 419 444 420
f 420 444 445
f 420 445 421
f 421 445 446
f 421 446 422
f 422 446 447
f 422 447 423
f 423 447 448
f 423 448 424
f 424 448 449
f 424 449 425
f 425 449 450
f 425 450 426
f 426 450 451
f 426 451 427
f 427 451 452
f 427 452 428
f 428 452 453
f 428 453 429
f 429 453 454
f 429 454 430
f 430 454 455
f 430 455 431
f 431 455 456
f 431 456 432
f 433 457 458
f 433 458 434
f 434 458 459
f 434 459 435
f 435 459 460
f 435 460 436
f 436 460 461
f 436 461 437
f 437 461 462
f 437 462 438
f 438 462 463
f 438 463 439
f 439 463 464
f 439 464 440
f 440 464 465
f 440 465 441
f 441 465 466
f 441 466 442
f 442 466 467
f 442 467 443
f 443 467 468
f 443 468 444
f 444 468 469
f 444 469 445
f 445 469 470
f 445 470 446
f 446 470 471
f 446 471 447
f 447 471 472
f 447 472 448
f 448 472 473
f 448 473 449
f 449 473 474
f 449 474 450
f 450 474 475
f 450 475 451
f 451 475 476
f 451 476 452
f 452 476 477
f 452 477 453
f 453 477 478
f 453 478 454
f 454 478 479
f 454 479 455
f 455 479 480
f 455 480 456
f 457 481 482
f 457 482 458
f 458 482 483
f 458 483 459
f 459 483 484
f 459 484 460
f 460 484 485
f 460 485 461
f 461 485 486
f 461 486 462
f 462 486 487
f 462 487 463
f 463 487 488
f 463 488 464
f 464 488 489
f 464 489 465
f 465 489 490
f 465 490 466
f 466 490 491
f 466 491 467
f 467 491 492
f 467 492 468
f 468 492 493
f 468 493 469
f 469 493 494
f 469 494 470
f 470 494 495
f 470 495 471
f 471 495 496
f 471 496 472
f 472 496 497
f 472 497 473
f 473 497 498
f 473 498 474
f 474 498 499
f 474 499 475
f 475 499 500
f 475 500 476
f 476 500 501
f 476 501 477
f 477 501 502
f 477 502 478
f 478 502 503
f 478 503 479
f 479 503 504
f 479 504 480
f 481 505 506
f 481 506 482
f 482 506 507
f 482 507 483
f 483 507 508
f 483 508 484
f 484 508 509
f 484 509 485
f 485 509 510
f 485 510 486
f 486 510 511
f 486 511 487
f 487 511 512
f 487 512 488
f 488 512 513
f 488 513 489
f 489 513 514
f 489 514 490
f 490 514 515
f 490 515 491
f 491 515 516
f 491 516 492
f 492 516 517
f 492 517 493
f 493 517 518
f 493 518 494
f 494 518 519
f 494 519 495
f 495 519 520
f 495 520 496
f 496 520 521
f 496 521 497
f 497 521 522
f 497 522 498
f 498 522 523
f 498 523 499
f 499 523 524
f 499 524 500
f 500 524 525
f 500 525 501
f 501 525 526
f 501 526 502
f 502 526 527
f 502 527 503
f 503 527 528
f 503 528 504
f 505 529 530
f 505 530 506
f 506 530 531
f 506 531 507
f 507 531 532
f 507 532 508
f 508 532 533
f 508 533 509
f 509 533 534
f 509 534 510
f 510 534 535
f 510 535 511
f 511 535 536
f 511 536 512
f 512 536 537
f 512 537 513
f 513 537 538
f 513 538 514
f 514 538 539
f 514 539 515
f 515 539 540
f 515 540 516
f 516 540 541
f 516 541 517
f 517 541 542
f 517 542 518
f 518 542 543
f 518 543 519
f 519 543 544
f 519 544 520
f 520 544 545
f 520 545 521
f 521 545 546
f 521 546 522
f 522 546 547
f 522 547 523
f 523 547 548
f 523 548 524
f 524 548 549
f 524 549 525
f 525 549 550
f 525 550 526
f 526 550 551
f 526 551 527
f 527 551 552
f 527 552 528
f 529 553 554
f 529 554 530
f 530 554 555
f 530 555 531
f 531 555 556
f 531 556 532
f 532 556 557
f 532 557 533
f 533 557 558
f 533 558 534
f 534 558 559
f 534 559 535
f 535 559 560
f 535 560 536
f 536 560 561
f 536 561 537
f 537 561 562
f 537 562 538
f 538 562 563
f 538 563 539
f 539 563 564
f 539 564 540
f 540 564 565
f 540 565 541
f 541 565 566
f 541 566 542
f 542 566 567
f 542 567 543
f 543 567 568
f 543 568 544
f 544 568 569
f 544 569 545
f 545 569 570
f 545 570 546
f 546 570 571
f 546 571 547
f 547 571 572
f 547 572 548
f 548 572 573
f 548 573 549
f 549 573 574
f 549 574 550
f 550 574 575
f 550 575 551
f 551 575 576
f 551 576 552
